Coordinates
version=1
nRows=8
nColumns=28
inDegrees=yes

Units are S.I. units (second, meters, Newtons, ...)
Angles are in degrees.

endheader
time	pelvis_tilt	pelvis_list	pelvis_rotation	pelvis_tx	pelvis_ty	pelvis_tz	hip_flexion_r	hip_adduction_r	hip_rotation_r	knee_angle_r	ankle_angle_r	subtalar_angle_r	mtp_angle_r	hip_flexion_l	hip_adduction_l	hip_rotation_l	knee_angle_l	socket_flexion	socket_adduction	socket_rotation	socket_tx	socket_ty	socket_tz	foot_flex	lumbar_extension	lumbar_bending	lumbar_rotation
      0.93750000	      3.23892267	     -5.71989831	     -1.55079430	      0.41780933	      1.03408921	      0.30599865	      0.16942013	     10.81407159	     -0.63239035	    -13.99729865	     10.23149362	    -11.72056347	      0.91324321	     12.66264766	    -11.85391035	      0.77618651	    -47.90860690	     10.42113294	      6.23019097	     14.22320885	      0.06943119	      0.03446130	     -0.03701389	     -0.46821027	    -10.77927334	      5.60239628	      4.18496851
      0.94166667	      3.18858552	     -5.57950904	     -1.76769138	      0.42243035	      1.03479839	      0.30643607	     -0.25754776	     10.64811038	     -0.52266738	    -13.66028370	     10.18114851	    -11.50432084	      0.94067921	     13.24145366	    -11.68512622	      0.91831265	    -47.70974561	     10.19749888	      6.30946867	     14.14696784	      0.06864426	      0.03422539	     -0.03735627	     -0.46584895	    -10.76763205	      5.39862477	      4.41656416
      0.94583333	      3.13213934	     -5.44604105	     -1.98543137	      0.42703313	      1.03549410	      0.30685660	     -0.67051145	     10.48536318	     -0.40924181	    -13.32751158	     10.12592650	    -11.28688538	      0.97324459	     13.80054350	    -11.50881514	      1.07498326	    -47.48254608	      9.94873502	      6.37796838	     14.05905330	      0.06771628	      0.03386958	     -0.03755631	     -0.45994745	    -10.75687470	      5.20312950	      4.66103327
      0.95000000	      3.09141690	     -5.31654099	     -2.21579246	      0.43163659	      1.03613130	      0.30731914	     -1.08752243	     10.32536083	     -0.32204474	    -13.02120832	     10.08344349	    -11.09379902	      1.00596987	     14.33996120	    -11.37799607	      1.20887451	    -47.24837412	      9.68937804	      6.45414002	     13.95951587	      0.06673671	      0.03357184	     -0.03805601	     -0.45773173	    -10.74949389	      5.01323649	      4.87014963
      0.95416667	      3.04262050	     -5.19920420	     -2.44098869	      0.43622084	      1.03674803	      0.30774092	     -1.49867876	     10.17251978	     -0.21686779	    -12.70023152	     10.03877331	    -10.88996737	      1.04209609	     14.86485121	    -11.23561618	      1.36287250	    -46.98731088	      9.40944243	      6.51487887	     13.86950540	      0.06565733	      0.03321380	     -0.03834313	     -0.45423645	    -10.74154949	      4.84106018	      5.08568680
      0.95833333	      2.98576171	     -5.07961110	     -2.64797416	      0.44080610	      1.03728889	      0.30814797	     -1.90085495	     10.02279600	     -0.10560434	    -12.37817298	      9.98663739	    -10.68309201	      1.08228667	     15.37479915	    -11.09226129	      1.51674149	    -46.70016921	      9.10618351	      6.56341063	     13.75957889	      0.06441908	      0.03264731	     -0.03857526	     -0.44783129	    -10.72241944	      4.66880762	      5.31099762
      0.96250000	      2.94316173	     -4.97783922	     -2.86971928	      0.44536141	      1.03780117	      0.30851046	     -2.29493527	      9.87563486	     -0.02381637	    -12.09905529	      9.94615194	    -10.50920797	      1.12038806	     15.86155398	    -10.98448528	      1.65278497	    -46.40309503	      8.79659044	      6.59691027	     13.65143848	      0.06314466	      0.03216198	     -0.03895067	     -0.44144048	    -10.72162438	      4.53136917	      5.50347839
      0.96666667	      2.88450056	     -4.87589529	     -3.06887228	      0.44995385	      1.03825435	      0.30889153	     -2.69657268	      9.74227634	      0.09501834	    -11.77070574	      9.89654885	    -10.30328941	      1.16656959	     16.33670399	    -10.84892784	      1.81042212	    -46.07552166	      8.45936563	      6.62762863	     13.54419199	      0.06176492	      0.03148991	     -0.03899873	     -0.43544313	    -10.70090444	      4.37336732	      5.72119771
